<svg id="afc015d3-caab-4df0-b2fe-a465c0319c48" data-name="Layer 1" xmlns="http://www.w3.org/2000/svg" viewBox="0 0 110.85 23.31"><title>logo</title><path d="M27,15a27.37,27.37,0,0,1-2.83,2.19A27,27,0,0,1,21,18.93a20.38,20.38,0,0,1-3.61,1.38,12.52,12.52,0,0,1-3.28.46,6.8,6.8,0,0,1-1.74-.21,4.66,4.66,0,0,1-1.45-.66,3.65,3.65,0,0,1-1.17-1.18,3.18,3.18,0,0,1-.39-1.59,3.67,3.67,0,0,1,.52-1.87,6.88,6.88,0,0,1,1.56-1.75,9.58,9.58,0,0,1,1.79-1.15,11.36,11.36,0,0,1,2-.79,1.84,1.84,0,0,0-.67-1,1.94,1.94,0,0,0-1.14-.32,3.84,3.84,0,0,0-1.79.43A5.44,5.44,0,0,0,10.12,12l-.95-1a6.71,6.71,0,0,1,2.47-2.31A7.18,7.18,0,0,1,15,8a4.5,4.5,0,0,1,2.6.78,6.28,6.28,0,0,1,1.95,2.31,12.53,12.53,0,0,1,1,2.6,17,17,0,0,1,.47,3.1,18.38,18.38,0,0,0,2.12-1.19,12.78,12.78,0,0,0,1.72-1.33,9.33,9.33,0,0,0-3.05-6.29,9.22,9.22,0,0,0-6.48-2.57A9.18,9.18,0,0,0,8.59,8.19,9.25,9.25,0,0,0,5.78,15a9.15,9.15,0,0,0,2.83,6.75,9.22,9.22,0,0,0,6.77,2.82V26.6a11.22,11.22,0,0,1-8.24-3.42A11.25,11.25,0,0,1,3.72,15,11.25,11.25,0,0,1,7.14,6.71a11.22,11.22,0,0,1,8.24-3.42,11.17,11.17,0,0,1,8.21,3.42A11.28,11.28,0,0,1,27,15Zm-10.44,3.3v-.19a18.44,18.44,0,0,0-.17-2.48,12.43,12.43,0,0,0-.58-2.39,18.27,18.27,0,0,0-1.82.63,11.21,11.21,0,0,0-1.43.71l1.2,4.37a6.8,6.8,0,0,0,1.54-.16A4.41,4.41,0,0,0,16.56,18.25Zm2.2,7.9L17,26.48l-.31-2L18,24.13ZM18.5,13.5a.72.72,0,0,0-.19-.55.88.88,0,0,0-1.12,0,.72.72,0,0,0-.19.55.75.75,0,0,0,.19.58,1,1,0,0,0,1.12,0A.75.75,0,0,0,18.5,13.5Zm1.26,2.91a1.08,1.08,0,0,0-.34-.8,1,1,0,0,0-.78-.34,1.06,1.06,0,0,0-.79.34,1.08,1.08,0,0,0-.34.8,1.07,1.07,0,0,0,.34.78,1.09,1.09,0,0,0,.79.33,1.15,1.15,0,0,0,1.12-1.11Zm2,8.34L20,25.7l-.75-2,1.25-.65Zm2.43-2.13L22.7,24.06l-1.22-1.78,1-1Z" transform="translate(-3.72 -3.29)" style="fill:coral"/><path d="M45.58,8.6l-8.76.19,3.89,2.14v3.33a4.67,4.67,0,0,0-4-2,6.58,6.58,0,0,0-4.16,1.41,4,4,0,0,0-1.81,3.22A3.7,3.7,0,0,0,32.42,20a6.87,6.87,0,0,0,4.21,1.22,6.12,6.12,0,0,0,2.53-.42,3.84,3.84,0,0,0,1.55-1.53v1.56h8.76l-3.89-2.14ZM38,19.53c-1.48,0-2.23-.9-2.23-2.71S36.6,14,38.17,14s2.36,1,2.36,2.92Q40.53,19.53,38,19.53Z" transform="translate(-3.72 -3.29)" style="fill:#32cd9a"/><path d="M62.85,13.66a10.58,10.58,0,0,0-5.52-1.43,12,12,0,0,0-5.87,1.33c-1.63.88-2.44,1.95-2.44,3.2s.79,2.32,2.38,3.21a11.61,11.61,0,0,0,5.75,1.33A12,12,0,0,0,62.87,20q2.37-1.28,2.37-3.06C65.24,15.72,64.45,14.62,62.85,13.66Zm-5.7,5.92c-1.9,0-2.84-.91-2.84-2.74S55.23,14,57.08,14s2.82,1,2.82,2.9A2.42,2.42,0,0,1,57.15,19.58Z" transform="translate(-3.72 -3.29)" style="fill:#32cd9a"/><path d="M80.08,13.66a10.61,10.61,0,0,0-5.52-1.43,12.11,12.11,0,0,0-5.88,1.33c-1.62.88-2.44,1.95-2.44,3.2S67,19.08,68.63,20a11.57,11.57,0,0,0,5.74,1.33A11.93,11.93,0,0,0,80.09,20c1.59-.85,2.38-1.87,2.38-3.06S81.67,14.62,80.08,13.66Zm-5.71,5.92c-1.89,0-2.83-.91-2.83-2.74S72.46,14,74.31,14s2.82,1,2.82,2.9A2.43,2.43,0,0,1,74.37,19.58Z" transform="translate(-3.72 -3.29)" style="fill:#32cd9a"/><path d="M97.62,13.17a5.42,5.42,0,0,0-2.85-.68A4.66,4.66,0,0,0,90.64,15V12.49l-8,.19L86,14.83v3.89l-3.33,2.14H94.73l-3.89-2.14V17.39a3.18,3.18,0,0,1,.72-2.11,2.24,2.24,0,0,1,1.79-.86c.8,0,1.2.36,1.2,1.07a2.2,2.2,0,0,1-.47,1.16,11.82,11.82,0,0,0,1.87.2c1.85,0,2.77-.65,2.77-1.93A2,2,0,0,0,97.62,13.17Z" transform="translate(-3.72 -3.29)" style="fill:#32cd9a"/><polygon points="103.48 15.87 110.85 9.19 96.32 9.19 96.32 13.42 99.23 10.65 102.55 10.65 95.07 17.56 110.33 17.56 110.33 13.11 107.42 15.87 103.48 15.87" style="fill:#32cd9a"/></svg>