<?xml version="1.0" standalone="no"?>
<!DOCTYPE svg PUBLIC "-//W3C//DTD SVG 20010904//EN"
 "http://www.w3.org/TR/2001/REC-SVG-20010904/DTD/svg10.dtd">
<svg version="1.0" xmlns="http://www.w3.org/2000/svg"
 width="4441.000000pt" height="988.000000pt" viewBox="0 0 4441.000000 988.000000"
 preserveAspectRatio="xMidYMid meet">

<g transform="translate(0.000000,988.000000) scale(0.100000,-0.100000)"
fill="#000000" stroke="none">
<path d="M4449 9868 c-191 -16 -419 -91 -590 -194 -372 -225 -701 -663 -903
-1202 -51 -137 -55 -158 -28 -147 9 3 53 11 97 17 183 24 235 59 266 173 6 22
38 92 71 155 240 459 577 772 934 867 85 22 119 26 244 26 173 0 255 -18 395
-87 217 -107 360 -263 495 -541 171 -351 239 -703 275 -1423 17 -337 22 -361
86 -416 71 -61 154 -71 237 -30 94 47 147 159 122 256 -16 61 -53 120 -94 152
-22 17 -39 40 -46 64 -5 20 -19 150 -30 287 -37 443 -81 696 -171 971 -147
447 -392 777 -701 944 -192 103 -422 148 -659 128z"/>
<path d="M5376 9742 c5 -5 47 -38 94 -74 155 -120 295 -279 400 -454 108 -177
239 -485 315 -739 15 -49 28 -91 29 -92 3 -3 267 65 273 71 12 11 -51 187
-112 311 -208 428 -623 867 -912 964 -64 22 -104 27 -87 13z"/>
<path d="M6631 8285 c-288 -74 -528 -140 -532 -147 -5 -7 -9 -39 -9 -71 0 -51
2 -58 18 -53 9 3 235 60 502 126 267 66 493 123 503 126 14 5 17 -2 17 -41 0
-38 -132 -2207 -315 -5150 -18 -302 -33 -551 -31 -552 5 -5 756 2535 758 2567
3 37 5 -31 42 -2003 13 -685 27 -1232 32 -1236 13 -12 254 -192 522 -389 128
-95 238 -172 244 -172 18 0 522 111 527 116 2 2 -10 120 -27 262 -43 341 -265
2153 -397 3227 -113 919 -407 3279 -409 3281 -1 1 -569 -33 -573 -35 -2 -1 -4
-65 -5 -143 l-2 -143 -6 147 -5 147 -154 136 c-85 74 -159 135 -165 134 -6 0
-247 -61 -535 -134z m876 -912 c-2 -16 -4 -3 -4 27 0 30 2 43 4 28 2 -16 2
-40 0 -55z"/>
<path d="M3715 8269 c-266 -12 -521 -56 -808 -140 -1117 -327 -1935 -1020
-2459 -2084 -213 -434 -352 -894 -415 -1380 -14 -112 -18 -209 -18 -485 1
-302 3 -366 23 -515 115 -851 428 -1621 898 -2210 117 -146 375 -408 521 -529
530 -437 1155 -734 1793 -850 416 -76 877 -89 1369 -40 l179 18 6 105 c13 234
27 653 22 659 -4 3 -53 -2 -109 -11 -499 -81 -927 -72 -1392 28 -466 100 -913
308 -1275 594 -139 110 -393 368 -504 511 -474 613 -707 1259 -745 2067 -45
941 231 1760 828 2458 373 436 858 758 1361 904 278 80 486 111 810 118 270 6
399 -2 668 -43 95 -15 175 -24 179 -21 8 8 202 678 203 698 0 42 -482 133
-760 144 -74 3 -153 7 -175 8 -22 2 -112 0 -200 -4z"/>
<path d="M5006 8147 c-17 -45 -86 -286 -86 -299 0 -9 100 -61 106 -56 5 6 94
330 94 345 0 15 -35 38 -72 47 -24 5 -28 2 -42 -37z"/>
<path d="M21520 8070 c-692 -66 -1339 -310 -1863 -703 -312 -235 -616 -561
-811 -872 -218 -346 -365 -756 -428 -1190 -20 -141 -17 -600 5 -750 53 -353
176 -725 338 -1018 145 -262 314 -484 543 -713 266 -265 524 -453 845 -614
818 -410 1806 -515 2686 -285 451 118 903 353 1169 608 l55 52 -355 585 c-196
322 -359 591 -363 598 -5 9 -33 -2 -107 -44 -165 -94 -486 -249 -647 -313
-871 -343 -1527 -245 -2118 316 -260 248 -432 552 -511 903 -20 92 -23 131
-23 320 0 189 3 228 23 320 43 193 123 375 236 540 62 90 223 260 326 343 283
228 703 431 1055 508 132 30 395 37 543 15 347 -51 712 -221 1117 -520 49 -36
92 -63 96 -58 3 4 169 276 368 606 336 556 361 600 346 616 -9 10 -66 54 -128
98 -481 345 -1030 558 -1647 638 -146 19 -606 27 -750 14z"/>
<path d="M26881 8070 c-709 -49 -1324 -274 -1784 -653 -56 -46 -110 -93 -120
-104 -17 -20 -8 -36 344 -614 198 -327 362 -595 363 -597 2 -1 54 28 117 64
443 258 849 416 1236 480 165 28 462 26 611 -4 296 -59 542 -181 794 -392 528
-441 748 -1090 583 -1723 -120 -464 -476 -894 -936 -1131 -243 -126 -489 -186
-762 -186 -447 0 -969 172 -1512 499 -66 39 -123 70 -127 69 -5 -2 -172 -273
-372 -603 l-364 -600 31 -28 c97 -87 366 -257 566 -357 378 -190 758 -305
1201 -365 181 -25 572 -30 770 -11 904 87 1713 479 2292 1111 439 479 700
1029 790 1665 8 61 13 188 12 355 0 215 -4 284 -22 400 -108 694 -431 1294
-964 1792 -544 508 -1286 832 -2102 918 -179 19 -488 26 -645 15z"/>
<path d="M37320 8033 c-114 -7 -116 0 22 -142 233 -240 382 -445 514 -706 92
-182 148 -333 194 -520 29 -119 35 -133 70 -167 20 -20 55 -41 76 -47 27 -8
491 -11 1511 -11 1249 0 1499 2 1658 16 103 8 188 14 190 12 1 -2 -541 -532
-1206 -1178 -1208 -1173 -1220 -1185 -1195 -1217 1 -1 478 -3 1061 -3 1162 -2
1087 -5 1195 57 26 15 229 208 475 452 237 235 787 779 1223 1210 494 488 815
814 852 863 156 207 228 463 201 720 -23 225 -71 340 -195 464 -65 65 -98 89
-166 122 -47 22 -112 49 -145 59 -57 17 -209 18 -3170 18 -1710 1 -3135 0
-3165 -2z"/>
<path d="M31944 8012 c-100 -35 -115 -54 -436 -567 -462 -739 -588 -950 -588
-990 0 -13 253 -15 2223 -18 2221 -3 2222 -3 2312 -24 186 -43 340 -118 430
-208 69 -68 133 -183 161 -285 21 -80 24 -271 5 -350 -23 -95 -86 -214 -150
-282 -98 -105 -283 -203 -478 -255 l-98 -26 -960 -8 c-528 -5 -1524 -6 -2212
-3 l-1253 7 0 -1572 0 -1571 750 0 750 0 0 804 0 804 33 13 c26 12 227 14
1162 14 1247 0 1155 5 1216 -62 28 -29 435 -627 810 -1188 231 -345 256 -373
351 -392 24 -4 1708 -6 3743 -3 3534 5 3702 6 3740 23 22 10 50 28 63 40 13
12 86 126 162 252 202 339 720 1235 720 1247 0 8 -1132 9 -3752 6 -2970 -4
-3761 -3 -3799 7 -121 32 -225 113 -395 307 -78 88 -96 113 -87 126 5 9 68 41
139 72 254 111 384 192 537 339 354 340 531 780 578 1436 41 584 -110 1118
-428 1507 -80 99 -245 253 -361 338 -330 242 -711 388 -1162 445 -215 27 -667
34 -2195 34 -1387 0 -1483 -1 -1531 -17z"/>
<path d="M5480 7968 c0 -32 4 -58 10 -58 13 0 13 80 0 100 -7 11 -10 -2 -10
-42z"/>
<path d="M10939 7966 c-99 -27 -182 -96 -222 -185 -32 -71 -35 -200 -7 -275
36 -94 111 -164 215 -197 31 -10 265 -14 1070 -19 l1030 -5 63 -34 c70 -38
120 -92 154 -167 35 -75 32 -190 -5 -266 -35 -71 -109 -139 -185 -170 -56 -22
-66 -23 -552 -28 -494 -5 -495 -5 -543 -28 -64 -32 -130 -100 -164 -170 -24
-49 -28 -69 -28 -142 0 -73 4 -93 28 -142 34 -69 118 -149 184 -174 45 -18
111 -19 1233 -24 l1185 -5 57 -23 c138 -56 208 -193 186 -365 -15 -112 -76
-194 -183 -244 l-60 -28 -2025 -1 c-2296 -1 -2094 7 -2193 -84 -79 -73 -102
-128 -102 -255 0 -83 4 -108 23 -150 28 -60 83 -119 137 -147 95 -49 30 -48
1825 -48 1081 0 1710 -4 1755 -11 86 -12 142 -38 194 -90 65 -65 86 -119 86
-220 0 -81 -3 -91 -40 -165 -43 -84 -93 -132 -163 -156 -28 -9 -310 -14 -1227
-18 -1182 -5 -1190 -5 -1245 -26 -127 -49 -197 -99 -231 -166 -65 -128 -25
-307 93 -413 91 -82 76 -80 723 -77 699 3 922 -5 982 -36 66 -34 110 -78 140
-140 25 -51 28 -68 28 -157 0 -83 -4 -109 -23 -150 -30 -65 -82 -118 -146
-147 l-51 -23 -755 -5 -755 -5 -60 -24 c-81 -32 -165 -117 -190 -191 -24 -72
-24 -188 0 -265 25 -78 88 -143 171 -176 l59 -24 1915 -3 c1304 -2 1965 0
2073 8 578 39 1109 245 1567 608 220 174 506 492 662 737 419 657 583 1470
453 2241 -121 715 -467 1347 -985 1798 -409 357 -863 568 -1413 659 l-132 21
-2280 3 c-1793 1 -2290 -1 -2326 -11z"/>
<path d="M2738 7073 c-256 -108 -245 -96 -166 -175 55 -55 117 -80 194 -80
143 0 233 94 233 247 1 70 -7 105 -23 104 -6 0 -113 -43 -238 -96z"/>
<path d="M24437 6808 c-346 -398 -582 -921 -657 -1453 -109 -785 121 -1595
643 -2263 l81 -104 38 44 c69 77 204 261 265 358 220 350 356 725 426 1170 31
199 31 633 -1 835 -75 479 -260 916 -532 1260 -69 87 -189 215 -201 215 -4 0
-32 -28 -62 -62z"/>
<path d="M3474 6260 c-413 -40 -768 -218 -1080 -543 -338 -350 -521 -749 -599
-1307 -22 -155 -31 -549 -16 -693 58 -536 275 -988 592 -1226 205 -155 515
-257 814 -267 402 -15 753 124 1095 435 45 40 83 72 85 70 2 -2 14 -29 28 -60
146 -331 472 -498 843 -434 205 36 416 137 559 268 l50 46 -60 63 c-33 35
-113 118 -178 185 -108 112 -131 143 -108 143 16 0 269 250 345 340 148 174
365 486 349 500 -4 4 -106 98 -225 208 -119 111 -219 202 -221 202 -2 0 -28
-42 -57 -92 -79 -140 -187 -301 -280 -418 -86 -108 -266 -300 -282 -300 -4 0
-8 15 -7 33 0 17 87 655 193 1417 106 762 190 1388 186 1393 -3 4 -190 6 -416
5 l-409 -3 -24 -177 c-14 -98 -28 -178 -32 -178 -4 0 -37 31 -74 70 -119 122
-292 225 -455 269 -165 45 -443 67 -616 51z m521 -704 c33 -9 94 -33 135 -53
157 -75 330 -297 330 -422 0 -58 -101 -874 -156 -1251 -40 -279 -65 -366 -140
-487 -116 -187 -313 -324 -529 -369 -109 -22 -292 -15 -390 16 -148 47 -279
135 -361 243 -59 78 -126 218 -154 322 -28 107 -90 479 -80 485 4 3 10 57 14
120 31 508 176 874 455 1150 148 146 296 226 485 260 76 13 320 5 391 -14z"/>
<path d="M7333 1337 c-366 -679 -630 -1182 -624 -1185 5 -1 307 85 672 192
952 279 994 292 992 300 -1 4 -208 188 -460 408 -252 220 -467 409 -478 419
-20 18 -21 17 -102 -134z"/>
<path d="M8743 1181 c-89 -20 -164 -38 -166 -41 -4 -4 138 -115 387 -302 l22
-17 -25 200 c-20 166 -27 199 -40 198 -9 -1 -89 -18 -178 -38z"/>
<path d="M4975 818 c-4 -13 -35 -722 -32 -724 1 -1 74 20 162 46 l160 48 -36
16 c-20 8 -59 18 -87 22 -91 12 -87 -6 -73 291 6 143 9 267 5 277 -12 31 -90
49 -99 24z"/>
<path d="M5202 483 l3 -88 451 -76 452 -76 22 75 c11 41 20 75 18 77 -4 3
-923 175 -937 175 -8 0 -11 -26 -9 -87z"/>
</g>
</svg>
